<svg width="1024" height="1024" viewBox="0 0 1024 1024" fill="none" xmlns="http://www.w3.org/2000/svg">
<rect width="1024" height="1024" rx="188" fill="url(#paint0_linear_15_2)" style="mix-blend-mode:darken"/>
<path d="M717.781 276.89C717.781 256.43 717.121 236.63 715.801 217.49C715.141 198.35 714.811 183.17 714.811 171.95C714.811 165.35 720.091 162.05 730.651 162.05C739.891 162.05 749.461 164.69 759.361 169.97C769.921 174.59 775.201 181.19 775.201 189.77C775.201 197.69 774.871 210.23 774.211 227.39C773.551 243.89 773.221 260.72 773.221 277.88V781.79C773.221 787.73 773.881 796.31 775.201 807.53C776.521 818.75 777.181 827.33 777.181 833.27C777.181 842.51 771.241 851.09 759.361 859.01C748.141 866.93 736.921 870.89 725.701 870.89C715.801 870.89 707.881 866.27 701.941 857.03C696.001 847.79 690.391 839.87 685.111 833.27C656.071 793.01 624.721 748.46 591.061 699.62C558.061 650.78 524.401 600.62 490.081 549.14C456.421 497 424.081 445.85 393.061 395.69C362.041 345.53 333.991 299 308.911 256.1V756.05C308.911 776.51 309.241 796.31 309.901 815.45C311.221 834.59 311.881 849.77 311.881 860.99C311.881 867.59 306.601 870.89 296.041 870.89C287.461 870.89 277.891 868.25 267.331 862.97C256.771 858.35 251.491 851.75 251.491 843.17C251.491 835.25 251.821 823.04 252.481 806.54C253.141 789.38 253.471 772.22 253.471 755.06V220.46C253.471 215.18 252.481 209.24 250.501 202.64C248.521 196.04 247.531 190.43 247.531 185.81C247.531 183.17 247.861 181.19 248.521 179.87C251.161 173.27 257.101 168.65 266.341 166.01C276.241 162.71 285.811 161.06 295.051 161.06C303.631 161.06 309.571 162.05 312.871 164.03C316.171 166.01 321.451 173.27 328.711 185.81C369.631 255.77 412.861 327.05 458.401 399.65C503.941 471.59 549.151 540.89 594.031 607.55C638.911 673.55 680.161 732.29 717.781 783.77V276.89Z" fill="black"/>
<defs>
<linearGradient id="paint0_linear_15_2" x1="1024" y1="819.979" x2="-3.06742e-06" y2="204.021" gradientUnits="userSpaceOnUse">
<stop stop-color="#BDD3FF"/>
<stop offset="0.26" stop-color="#BFD8FF"/>
<stop offset="0.77" stop-color="#CCFBFC"/>
</linearGradient>
</defs>
</svg>
